<?xml version="1.0" encoding="UTF-8"?><svg id="Layer_1" xmlns="http://www.w3.org/2000/svg" viewBox="0 0 3735.1 906.25"><defs><style>.cls-1{fill:none;stroke:#fff;stroke-miterlimit:10;stroke-width:30px;}.cls-2{fill:#fff;}</style></defs><path class="cls-2" d="M375.32,346.81h-75.73c-1.05,0-1.9-.85-1.9-1.9v-15.81c0-17.96-4.23-33.5-12.71-46.58s-22.71-19.63-42.73-19.63c-10.78,0-19.52,2.06-26.18,6.16-6.68,4.11-12.07,9.24-16.17,15.4-4.12,6.68-6.93,14.24-8.47,22.71-1.54,8.47-2.31,17.32-2.31,26.56,0,10.78,.38,19.77,1.16,26.95,.77,7.19,2.69,13.61,5.77,19.25,3.08,5.65,7.57,10.53,13.48,14.63,5.89,4.12,13.98,8.22,24.25,12.32l60.06,23.87c17.45,6.68,31.57,14.51,42.35,23.48,10.78,8.99,19.25,19.38,25.41,31.19,5.64,12.32,9.49,26.31,11.55,41.96,2.04,15.67,3.08,33.5,3.08,53.51,0,23.1-2.31,44.54-6.93,64.29-4.62,19.77-12.07,36.58-22.33,50.44-10.78,14.38-24.9,25.67-42.35,33.88-17.46,8.21-38.76,12.32-63.91,12.32-19,0-36.71-3.34-53.13-10.01-16.44-6.67-30.55-15.91-42.35-27.72-11.81-11.8-21.18-25.53-28.1-41.2-6.93-15.65-10.4-32.72-10.4-51.2v-28.36c0-.5,.4-.9,.9-.9h74.73c1.6,0,2.9,1.3,2.9,2.9v21.74c0,14.38,4.23,27.33,12.71,38.88s22.71,17.33,42.73,17.33c13.34,0,23.74-1.93,31.19-5.78,7.44-3.85,13.21-9.36,17.32-16.55,4.1-7.18,6.54-15.79,7.32-25.79,.77-10.01,1.15-21.18,1.15-33.5,0-14.37-.52-26.18-1.54-35.42-1.03-9.22-3.07-16.64-6.14-22.29-.02-.03-.03-.06-.05-.08-3.59-5.62-8.34-10.23-14.22-13.82-5.91-3.58-13.74-7.44-23.48-11.55l-56.21-23.1c-33.88-13.86-56.59-32.21-68.14-55.06-11.55-22.83-17.32-51.46-17.32-85.85,0-20.53,2.81-40.04,8.47-58.52,5.64-18.48,14.11-34.38,25.41-47.74,10.78-13.34,24.51-23.99,41.19-31.95,16.68-7.95,36.57-11.94,59.68-11.94,19.5,0,37.34,3.6,53.51,10.78,16.17,7.19,30.15,16.69,41.96,28.49,23.61,24.64,35.42,52.88,35.42,84.7v37.6c0,.5-.4,.9-.9,.9Z"/><path class="cls-2" d="M438.59,318.33c0-22.07,3.85-41.58,11.55-58.52,7.7-16.94,17.96-31.05,30.8-42.35,12.32-10.78,26.3-18.99,41.96-24.64,15.65-5.64,31.44-8.47,47.35-8.47s31.69,2.83,47.36,8.47c15.65,5.66,29.9,13.86,42.73,24.64,12.32,11.3,22.33,25.41,30.03,42.35,7.7,16.94,11.55,36.46,11.55,58.52v289.52c0,23.1-3.85,42.87-11.55,59.29-7.7,16.43-17.71,30.03-30.03,40.81-12.84,11.3-27.08,19.77-42.73,25.41-15.67,5.64-31.45,8.47-47.36,8.47s-31.7-2.83-47.35-8.47c-15.67-5.64-29.65-14.11-41.96-25.41-12.84-10.78-23.1-24.38-30.8-40.81-7.7-16.42-11.55-36.19-11.55-59.29V318.33Zm78.54,289.52c0,19,5.26,32.99,15.79,41.96,10.52,8.99,22.97,13.48,37.34,13.48s26.82-4.49,37.35-13.48c10.51-8.97,15.78-22.97,15.78-41.96V318.33c0-18.99-5.27-32.98-15.78-41.97-10.53-8.97-22.98-13.47-37.35-13.47s-26.83,4.5-37.34,13.47c-10.53,8.99-15.79,22.98-15.79,41.97v289.52Z"/><path class="cls-2" d="M779.7,736.3V189.87c0-.5,.4-.9,.9-.9h76.73c.5,0,.9,.4,.9,.9v467.89c0,.5,.4,.9,.9,.9h153.73c.5,0,.9,.4,.9,.9v76.73c0,.5-.4,.9-.9,.9h-232.27c-.5,0-.9-.4-.9-.9Z"/><path class="cls-2" d="M1326.26,188.96c.5,0,.9,.4,.9,.9v424.14c0,17.97-3.21,34.53-9.62,49.67-6.42,15.15-15.53,28.62-27.33,40.42s-25.41,21.05-40.81,27.72c-15.4,6.67-31.83,10.01-49.28,10.01s-33.76-3.34-48.89-10.01c-15.15-6.67-28.62-15.91-40.42-27.72-11.82-11.8-21.05-25.28-27.72-40.42-6.68-15.14-10.01-31.69-10.01-49.67V189.87c0-.5,.4-.9,.9-.9h76.73c.5,0,.9,.4,.9,.9v416.44c0,19.51,4.62,33.88,13.86,43.12,9.24,9.24,20.79,13.86,34.65,13.86s25.41-4.62,34.65-13.86,13.86-23.61,13.86-43.12V189.87c0-.5,.4-.9,.9-.9h76.73Z"/><path class="cls-2" d="M1461.14,736.3V263.79c0-.5-.4-.9-.9-.9h-89.05c-.5,0-.9-.4-.9-.9v-72.11c0-.5,.4-.9,.9-.9h258.45c.5,0,.9,.4,.9,.9v72.11c0,.5-.4,.9-.9,.9h-89.05c-.5,0-.9,.4-.9,.9v472.51c0,.5-.4,.9-.9,.9h-76.73c-.5,0-.9-.4-.9-.9Z"/><path class="cls-2" d="M1675.96,736.3V189.87c0-.5,.4-.9,.9-.9h76.73c.5,0,.9,.4,.9,.9V736.3c0,.5-.4,.9-.9,.9h-76.73c-.5,0-.9-.4-.9-.9Z"/><path class="cls-2" d="M1834.57,318.33c0-22.07,3.85-41.58,11.55-58.52,7.7-16.94,17.96-31.05,30.8-42.35,12.32-10.78,26.3-18.99,41.96-24.64,15.65-5.64,31.44-8.47,47.35-8.47s31.69,2.83,47.36,8.47c15.65,5.66,29.9,13.86,42.73,24.64,12.32,11.3,22.33,25.41,30.03,42.35,7.7,16.94,11.55,36.46,11.55,58.52v289.52c0,23.1-3.85,42.87-11.55,59.29-7.7,16.43-17.71,30.03-30.03,40.81-12.84,11.3-27.08,19.77-42.73,25.41-15.67,5.64-31.45,8.47-47.36,8.47s-31.7-2.83-47.35-8.47c-15.67-5.64-29.65-14.11-41.96-25.41-12.84-10.78-23.1-24.38-30.8-40.81-7.7-16.42-11.55-36.19-11.55-59.29V318.33Zm78.54,289.52c0,19,5.26,32.99,15.79,41.96,10.52,8.99,22.97,13.48,37.34,13.48s26.82-4.49,37.35-13.48c10.51-8.97,15.78-22.97,15.78-41.96V318.33c0-18.99-5.27-32.98-15.78-41.97-10.53-8.97-22.98-13.47-37.35-13.47s-26.83,4.5-37.34,13.47c-10.53,8.99-15.79,22.98-15.79,41.97v289.52Z"/><path class="cls-2" d="M2172.6,736.3V189.87c0-.5,.4-.9,.9-.9h73.92c.38,0,.72,.24,.85,.6l118.15,329.13c.13,.36,.47,.6,.85,.6h0c.5,0,.9-.4,.9-.9V189.87c0-.5,.4-.9,.9-.9h76.73c.5,0,.9,.4,.9,.9V736.3c0,.5-.4,.9-.9,.9h-72.38c-.38,0-.72-.24-.85-.59l-119.69-328.37c-.13-.36-.47-.59-.85-.59h0c-.5,0-.9,.4-.9,.9v327.75c0,.5-.4,.9-.9,.9h-76.73c-.5,0-.9-.4-.9-.9Z"/><g><path class="cls-1" d="M2605.88,723.3v-219.58c0-.1-.02-.2-.05-.29l-102.16-299.93c-.2-.59,.24-1.2,.86-1.2h77.22c.4,0,.76,.27,.87,.65l59.73,206.13c.11,.39,.47,.65,.87,.65h.11c.4,0,.76-.27,.87-.65l59.73-206.13c.11-.39,.47-.65,.87-.65h77.22c.62,0,1.06,.61,.86,1.2l-102.16,299.93c-.03,.09-.05,.19-.05,.29v219.58c0,.5-.4,.9-.9,.9h-72.96c-.5,0-.9-.4-.9-.9Z"/><path class="cls-1" d="M2824.3,325.45c0-21,3.67-39.58,11-55.71s17.1-29.56,29.32-40.32c11.73-10.26,25.04-18.07,39.95-23.46,14.9-5.37,29.93-8.06,45.08-8.06s30.17,2.69,45.08,8.06c14.9,5.38,28.46,13.19,40.68,23.46,11.73,10.75,21.26,24.19,28.59,40.32,7.33,16.13,11,34.7,11,55.71v275.61c0,21.99-3.67,40.81-11,56.44-7.33,15.64-16.86,28.59-28.59,38.85-12.22,10.75-25.78,18.82-40.68,24.19-14.91,5.37-29.94,8.06-45.08,8.06s-30.18-2.69-45.08-8.06c-14.91-5.37-28.22-13.43-39.95-24.19-12.22-10.26-21.99-23.2-29.32-38.85-7.33-15.63-11-34.45-11-56.44V325.45Zm74.77,275.61c0,18.08,5,31.4,15.03,39.95,10.01,8.55,21.86,12.83,35.55,12.83s25.53-4.27,35.55-12.83c10.01-8.54,15.03-21.86,15.03-39.95V325.45c0-18.07-5.02-31.39-15.03-39.95-10.02-8.54-21.88-12.83-35.55-12.83s-25.54,4.28-35.55,12.83c-10.02,8.56-15.03,21.88-15.03,39.95v275.61Z"/><path class="cls-1" d="M3144.62,325.45c0-21,3.67-39.58,11-55.71s17.1-29.56,29.32-40.32c11.73-10.26,25.04-18.07,39.95-23.46,14.9-5.37,29.93-8.06,45.08-8.06s30.17,2.69,45.08,8.06c14.9,5.38,28.46,13.19,40.68,23.46,11.73,10.75,21.26,24.19,28.59,40.32,7.33,16.13,11,34.7,11,55.71v25.48c0,.5-.4,.9-.9,.9h-72.96c-.5,0-.9-.4-.9-.9v-25.48c0-18.07-5.02-31.39-15.03-39.95-10.02-8.54-21.88-12.83-35.55-12.83s-25.54,4.28-35.55,12.83c-10.02,8.56-15.03,21.88-15.03,39.95v275.61c0,18.08,5,31.4,15.03,39.95,10.01,8.55,21.86,12.83,35.55,12.83s25.53-4.27,35.55-12.83c10.01-8.54,15.03-21.86,15.03-39.95v-97.32c0-.5-.4-.9-.9-.9h-57.56c-.5,0-.9-.4-.9-.9v-64.16c0-.5,.4-.9,.9-.9h132.33c.5,0,.9,.4,.9,.9v163.29c0,21.99-3.67,40.81-11,56.44-7.33,15.64-16.86,28.59-28.59,38.85-12.22,10.75-25.78,18.82-40.68,24.19-14.91,5.37-29.94,8.06-45.08,8.06s-30.18-2.69-45.08-8.06c-14.91-5.37-28.22-13.43-39.95-24.19-12.22-10.26-21.99-23.2-29.32-38.85-7.33-15.63-11-34.45-11-56.44V325.45Z"/><path class="cls-1" d="M3471.53,723.3V203.21c0-.5,.4-.9,.9-.9h72.96c.5,0,.9,.4,.9,.9V723.3c0,.5-.4,.9-.9,.9h-72.96c-.5,0-.9-.4-.9-.9Z"/></g></svg>